<svg xmlns="http://www.w3.org/2000/svg" viewBox="0 0 1200 800" font-family="'Segoe UI', Arial, sans-serif">
  <defs>
    <!-- Background gradient -->
    <linearGradient id="bgGrad" x1="0%" y1="0%" x2="100%" y2="100%">
      <stop offset="0%" style="stop-color:#0f1117"/>
      <stop offset="100%" style="stop-color:#161822"/>
    </linearGradient>

    <!-- Card gradients -->
    <linearGradient id="domainGrad" x1="0%" y1="0%" x2="100%" y2="0%">
      <stop offset="0%" style="stop-color:#6366f1"/>
      <stop offset="100%" style="stop-color:#8b5cf6"/>
    </linearGradient>
    <linearGradient id="infraGrad" x1="0%" y1="0%" x2="100%" y2="0%">
      <stop offset="0%" style="stop-color:#0ea5e9"/>
      <stop offset="100%" style="stop-color:#38bdf8"/>
    </linearGradient>
    <linearGradient id="apiGrad" x1="0%" y1="0%" x2="100%" y2="0%">
      <stop offset="0%" style="stop-color:#f97316"/>
      <stop offset="100%" style="stop-color:#fb923c"/>
    </linearGradient>
    <linearGradient id="workerGrad" x1="0%" y1="0%" x2="100%" y2="0%">
      <stop offset="0%" style="stop-color:#22c55e"/>
      <stop offset="100%" style="stop-color:#4ade80"/>
    </linearGradient>
    <linearGradient id="dbGrad" x1="0%" y1="0%" x2="100%" y2="0%">
      <stop offset="0%" style="stop-color:#3b82f6"/>
      <stop offset="100%" style="stop-color:#60a5fa"/>
    </linearGradient>
    <linearGradient id="frontendGrad" x1="0%" y1="0%" x2="100%" y2="0%">
      <stop offset="0%" style="stop-color:#ec4899"/>
      <stop offset="100%" style="stop-color:#f472b6"/>
    </linearGradient>
    <linearGradient id="dockerGrad" x1="0%" y1="0%" x2="100%" y2="0%">
      <stop offset="0%" style="stop-color:#2563eb"/>
      <stop offset="100%" style="stop-color:#1d4ed8"/>
    </linearGradient>
    <linearGradient id="handlerGrad" x1="0%" y1="0%" x2="100%" y2="0%">
      <stop offset="0%" style="stop-color:#14b8a6"/>
      <stop offset="100%" style="stop-color:#2dd4bf"/>
    </linearGradient>

    <!-- Arrow markers -->
    <marker id="arrowOrange" markerWidth="10" markerHeight="7" refX="9" refY="3.5" orient="auto">
      <polygon points="0 0, 10 3.5, 0 7" fill="#f97316" opacity="0.9"/>
    </marker>
    <marker id="arrowGreen" markerWidth="10" markerHeight="7" refX="9" refY="3.5" orient="auto">
      <polygon points="0 0, 10 3.5, 0 7" fill="#22c55e" opacity="0.9"/>
    </marker>
    <marker id="arrowBlue" markerWidth="10" markerHeight="7" refX="9" refY="3.5" orient="auto">
      <polygon points="0 0, 10 3.5, 0 7" fill="#3b82f6" opacity="0.9"/>
    </marker>
    <marker id="arrowPurple" markerWidth="10" markerHeight="7" refX="9" refY="3.5" orient="auto">
      <polygon points="0 0, 10 3.5, 0 7" fill="#a855f7" opacity="0.9"/>
    </marker>
    <marker id="arrowCyan" markerWidth="10" markerHeight="7" refX="9" refY="3.5" orient="auto">
      <polygon points="0 0, 10 3.5, 0 7" fill="#0ea5e9" opacity="0.9"/>
    </marker>
    <marker id="arrowPink" markerWidth="10" markerHeight="7" refX="9" refY="3.5" orient="auto">
      <polygon points="0 0, 10 3.5, 0 7" fill="#ec4899" opacity="0.9"/>
    </marker>
    <marker id="arrowTeal" markerWidth="10" markerHeight="7" refX="9" refY="3.5" orient="auto">
      <polygon points="0 0, 10 3.5, 0 7" fill="#14b8a6" opacity="0.9"/>
    </marker>

    <!-- Glow filter -->
    <filter id="glow">
      <feGaussianBlur stdDeviation="3" result="coloredBlur"/>
      <feMerge>
        <feMergeNode in="coloredBlur"/>
        <feMergeNode in="SourceGraphic"/>
      </feMerge>
    </filter>
    <filter id="softShadow">
      <feDropShadow dx="0" dy="2" stdDeviation="4" flood-color="#000" flood-opacity="0.3"/>
    </filter>

    <!-- Card body background pattern -->
    <pattern id="cardPattern" x="0" y="0" width="4" height="4" patternUnits="userSpaceOnUse">
      <rect width="4" height="4" fill="transparent"/>
      <circle cx="2" cy="2" r="0.3" fill="#ffffff" opacity="0.03"/>
    </pattern>
  </defs>

  <style>
    .flow-line { stroke-dasharray: 8 4; }
    .flow-line-anim { animation: dash-flow 0.8s linear infinite; }
    @keyframes dash-flow { to { stroke-dashoffset: -12; } }
    .pulse { animation: pulse-anim 2s ease-in-out infinite; }
    @keyframes pulse-anim { 0%, 100% { opacity: 0.6; } 50% { opacity: 1; } }
    .card-hover { transition: filter 0.2s; }
    .title-text { font-size: 22px; font-weight: 700; fill: #e2e8f0; }
    .subtitle-text { font-size: 13px; fill: #94a3b8; }
    .card-title { font-size: 13px; font-weight: 700; fill: #ffffff; }
    .card-body { font-size: 10.5px; fill: #cbd5e1; }
    .card-detail { font-size: 9.5px; fill: #94a3b8; }
    .badge-text { font-size: 8px; font-weight: 600; fill: #ffffff; }
    .flow-label { font-size: 9px; font-weight: 600; }
    .legend-text { font-size: 10px; fill: #94a3b8; }
  </style>

  <!-- Background -->
  <rect width="1200" height="800" fill="url(#bgGrad)"/>

  <!-- Subtle grid -->
  <g opacity="0.04">
    <line x1="0" y1="0" x2="0" y2="800" stroke="#ffffff" stroke-width="0.5"/>
    <line x1="60" y1="0" x2="60" y2="800" stroke="#ffffff" stroke-width="0.5"/>
    <line x1="120" y1="0" x2="120" y2="800" stroke="#ffffff" stroke-width="0.5"/>
    <line x1="180" y1="0" x2="180" y2="800" stroke="#ffffff" stroke-width="0.5"/>
    <line x1="240" y1="0" x2="240" y2="800" stroke="#ffffff" stroke-width="0.5"/>
    <line x1="300" y1="0" x2="300" y2="800" stroke="#ffffff" stroke-width="0.5"/>
    <line x1="360" y1="0" x2="360" y2="800" stroke="#ffffff" stroke-width="0.5"/>
    <line x1="420" y1="0" x2="420" y2="800" stroke="#ffffff" stroke-width="0.5"/>
    <line x1="480" y1="0" x2="480" y2="800" stroke="#ffffff" stroke-width="0.5"/>
    <line x1="540" y1="0" x2="540" y2="800" stroke="#ffffff" stroke-width="0.5"/>
    <line x1="600" y1="0" x2="600" y2="800" stroke="#ffffff" stroke-width="0.5"/>
    <line x1="660" y1="0" x2="660" y2="800" stroke="#ffffff" stroke-width="0.5"/>
    <line x1="720" y1="0" x2="720" y2="800" stroke="#ffffff" stroke-width="0.5"/>
    <line x1="780" y1="0" x2="780" y2="800" stroke="#ffffff" stroke-width="0.5"/>
    <line x1="840" y1="0" x2="840" y2="800" stroke="#ffffff" stroke-width="0.5"/>
    <line x1="900" y1="0" x2="900" y2="800" stroke="#ffffff" stroke-width="0.5"/>
    <line x1="960" y1="0" x2="960" y2="800" stroke="#ffffff" stroke-width="0.5"/>
    <line x1="1020" y1="0" x2="1020" y2="800" stroke="#ffffff" stroke-width="0.5"/>
    <line x1="1080" y1="0" x2="1080" y2="800" stroke="#ffffff" stroke-width="0.5"/>
    <line x1="1140" y1="0" x2="1140" y2="800" stroke="#ffffff" stroke-width="0.5"/>
    <line x1="1200" y1="0" x2="1200" y2="800" stroke="#ffffff" stroke-width="0.5"/>
    <line x1="0" y1="0" x2="1200" y2="0" stroke="#ffffff" stroke-width="0.5"/>
    <line x1="0" y1="60" x2="1200" y2="60" stroke="#ffffff" stroke-width="0.5"/>
    <line x1="0" y1="120" x2="1200" y2="120" stroke="#ffffff" stroke-width="0.5"/>
    <line x1="0" y1="180" x2="1200" y2="180" stroke="#ffffff" stroke-width="0.5"/>
    <line x1="0" y1="240" x2="1200" y2="240" stroke="#ffffff" stroke-width="0.5"/>
    <line x1="0" y1="300" x2="1200" y2="300" stroke="#ffffff" stroke-width="0.5"/>
    <line x1="0" y1="360" x2="1200" y2="360" stroke="#ffffff" stroke-width="0.5"/>
    <line x1="0" y1="420" x2="1200" y2="420" stroke="#ffffff" stroke-width="0.5"/>
    <line x1="0" y1="480" x2="1200" y2="480" stroke="#ffffff" stroke-width="0.5"/>
    <line x1="0" y1="540" x2="1200" y2="540" stroke="#ffffff" stroke-width="0.5"/>
    <line x1="0" y1="600" x2="1200" y2="600" stroke="#ffffff" stroke-width="0.5"/>
    <line x1="0" y1="660" x2="1200" y2="660" stroke="#ffffff" stroke-width="0.5"/>
    <line x1="0" y1="720" x2="1200" y2="720" stroke="#ffffff" stroke-width="0.5"/>
    <line x1="0" y1="780" x2="1200" y2="780" stroke="#ffffff" stroke-width="0.5"/>
  </g>

  <!-- Title Area -->
  <text x="600" y="32" text-anchor="middle" class="title-text" letter-spacing="1">Transactional Outbox + Inbox Pattern</text>
  <text x="600" y="50" text-anchor="middle" class="subtitle-text">.NET 10 / EF Core / PostgreSQL - Architecture Overview</text>

  <!-- ============================================================ -->
  <!-- FRONTEND (Browser) - Top Left -->
  <!-- ============================================================ -->
  <g transform="translate(25, 65)" filter="url(#softShadow)">
    <!-- Browser chrome -->
    <rect x="0" y="0" width="175" height="130" rx="8" fill="#1e1e2e" stroke="#334155" stroke-width="1"/>
    <rect x="0" y="0" width="175" height="24" rx="8" fill="#2a2a3e"/>
    <rect x="0" y="16" width="175" height="8" fill="#2a2a3e"/>
    <!-- Traffic lights -->
    <circle cx="14" cy="12" r="4" fill="#ff5f57"/>
    <circle cx="28" cy="12" r="4" fill="#febc2e"/>
    <circle cx="42" cy="12" r="4" fill="#28c840"/>
    <!-- URL bar -->
    <rect x="54" y="7" width="110" height="12" rx="3" fill="#1a1a2e"/>
    <text x="109" y="16" text-anchor="middle" font-size="7" fill="#64748b">localhost:5017</text>
    <!-- Content area -->
    <rect x="6" y="30" width="163" height="93" rx="4" fill="#0f1117"/>
    <!-- Mini UI representation -->
    <rect x="12" y="36" width="70" height="6" rx="2" fill="#334155"/>
    <rect x="12" y="46" width="152" height="12" rx="3" fill="#1e293b" stroke="#334155" stroke-width="0.5"/>
    <rect x="16" y="49" width="50" height="5" rx="1.5" fill="#475569"/>
    <rect x="70" y="49" width="40" height="5" rx="1.5" fill="#22c55e" opacity="0.4"/>
    <rect x="12" y="62" width="152" height="12" rx="3" fill="#1e293b" stroke="#334155" stroke-width="0.5"/>
    <rect x="16" y="65" width="50" height="5" rx="1.5" fill="#475569"/>
    <rect x="70" y="65" width="30" height="5" rx="1.5" fill="#3b82f6" opacity="0.4"/>
    <rect x="12" y="78" width="152" height="12" rx="3" fill="#1e293b" stroke="#334155" stroke-width="0.5"/>
    <rect x="16" y="81" width="50" height="5" rx="1.5" fill="#475569"/>
    <rect x="70" y="81" width="35" height="5" rx="1.5" fill="#f97316" opacity="0.4"/>
    <text x="88" y="104" text-anchor="middle" font-size="7" fill="#64748b">Auto-refresh 5s</text>
    <rect x="50" y="98" width="76" height="12" rx="4" fill="none" stroke="#64748b" stroke-width="0.5" stroke-dasharray="2 1"/>
  </g>
  <text x="112" y="206" text-anchor="middle" font-size="11" font-weight="600" fill="#f472b6">Frontend</text>
  <text x="112" y="218" text-anchor="middle" font-size="9" fill="#64748b">HTML / CSS / JS</text>

  <!-- ============================================================ -->
  <!-- API PROJECT CARD -->
  <!-- ============================================================ -->
  <g transform="translate(35, 240)" filter="url(#softShadow)">
    <rect x="0" y="0" width="215" height="175" rx="10" fill="#1a1a2e" stroke="#f9731640" stroke-width="1.5"/>
    <rect x="0" y="0" width="215" height="32" rx="10" fill="url(#apiGrad)"/>
    <rect x="0" y="20" width="215" height="12" fill="url(#apiGrad)"/>
    <text x="107" y="22" text-anchor="middle" class="card-title">API Project</text>
    <!-- Tech badge -->
    <rect x="140" y="6" width="65" height="14" rx="4" fill="#ffffff20"/>
    <text x="172" y="16" text-anchor="middle" class="badge-text">ASP.NET Core</text>
    <!-- Content -->
    <text x="12" y="48" class="card-body" font-weight="600">Minimal APIs (7 endpoints)</text>
    <line x1="12" y1="54" x2="203" y2="54" stroke="#334155" stroke-width="0.5"/>
    <text x="12" y="68" class="card-detail" fill="#f97316">POST</text>
    <text x="42" y="68" class="card-detail">/api/users</text>
    <text x="12" y="80" class="card-detail" fill="#22c55e">GET </text>
    <text x="42" y="80" class="card-detail">/api/users</text>
    <text x="12" y="92" class="card-detail" fill="#f97316">POST</text>
    <text x="42" y="92" class="card-detail">/users/{id}/follow/{id}</text>
    <text x="12" y="104" class="card-detail" fill="#22c55e">GET </text>
    <text x="42" y="104" class="card-detail">/api/outbox/messages</text>
    <text x="12" y="116" class="card-detail" fill="#22c55e">GET </text>
    <text x="42" y="116" class="card-detail">/api/inbox/messages</text>
    <text x="12" y="128" class="card-detail" fill="#22c55e">GET </text>
    <text x="42" y="128" class="card-detail">/api/inbox/messages/{id}</text>
    <text x="12" y="140" class="card-detail" fill="#22c55e">GET </text>
    <text x="42" y="140" class="card-detail">/api/inbox/stats</text>
    <text x="12" y="160" class="card-detail" fill="#64748b">Serves static wwwroot/ frontend</text>
  </g>

  <!-- ============================================================ -->
  <!-- DOMAIN PROJECT CARD -->
  <!-- ============================================================ -->
  <g transform="translate(310, 240)" filter="url(#softShadow)">
    <rect x="0" y="0" width="185" height="120" rx="10" fill="#1a1a2e" stroke="#8b5cf640" stroke-width="1.5"/>
    <rect x="0" y="0" width="185" height="32" rx="10" fill="url(#domainGrad)"/>
    <rect x="0" y="20" width="185" height="12" fill="url(#domainGrad)"/>
    <text x="92" y="22" text-anchor="middle" class="card-title">Domain</text>
    <!-- No dependencies badge -->
    <rect x="120" y="6" width="55" height="14" rx="4" fill="#ffffff20"/>
    <text x="147" y="16" text-anchor="middle" class="badge-text">0 deps</text>
    <text x="12" y="50" class="card-body">Entity base class</text>
    <text x="12" y="65" class="card-body">DomainEvent (abstract record)</text>
    <text x="12" y="80" class="card-body" fill="#a78bfa">UserFollowedEvent</text>
    <text x="12" y="95" class="card-detail" fill="#64748b">User entity with Follow() method</text>
    <text x="12" y="110" class="card-detail" fill="#64748b">Raises domain events in-memory</text>
  </g>

  <!-- ============================================================ -->
  <!-- INFRASTRUCTURE PROJECT CARD -->
  <!-- ============================================================ -->
  <g transform="translate(310, 385)" filter="url(#softShadow)">
    <rect x="0" y="0" width="185" height="155" rx="10" fill="#1a1a2e" stroke="#0ea5e940" stroke-width="1.5"/>
    <rect x="0" y="0" width="185" height="32" rx="10" fill="url(#infraGrad)"/>
    <rect x="0" y="20" width="185" height="12" fill="url(#infraGrad)"/>
    <text x="92" y="22" text-anchor="middle" class="card-title">Infrastructure</text>
    <rect x="110" y="6" width="65" height="14" rx="4" fill="#ffffff20"/>
    <text x="142" y="16" text-anchor="middle" class="badge-text">EF Core 10</text>
    <text x="12" y="50" class="card-body">AppDbContext</text>
    <text x="12" y="65" class="card-body" fill="#38bdf8">OutboxSaveChangesInterceptor</text>
    <text x="12" y="80" class="card-body">OutboxMessage / InboxMessage</text>
    <text x="12" y="95" class="card-body">EF Configurations</text>
    <line x1="12" y1="103" x2="173" y2="103" stroke="#334155" stroke-width="0.5"/>
    <text x="12" y="118" class="card-body" fill="#0ea5e9">IEventHandler&lt;T&gt; implementations:</text>
    <text x="12" y="133" class="card-detail" fill="#14b8a6">+ SendNotificationHandler</text>
    <text x="12" y="145" class="card-detail" fill="#14b8a6">+ UpdateFollowStatsHandler</text>
    <text x="12" y="157" class="card-detail" fill="#14b8a6">+ AddToTimelineHandler</text>
  </g>

  <!-- ============================================================ -->
  <!-- WORKER PROJECT CARD -->
  <!-- ============================================================ -->
  <g transform="translate(35, 440)" filter="url(#softShadow)">
    <rect x="0" y="0" width="215" height="130" rx="10" fill="#1a1a2e" stroke="#22c55e40" stroke-width="1.5"/>
    <rect x="0" y="0" width="215" height="32" rx="10" fill="url(#workerGrad)"/>
    <rect x="0" y="20" width="215" height="12" fill="url(#workerGrad)"/>
    <text x="107" y="22" text-anchor="middle" class="card-title">Worker (BackgroundService)</text>
    <rect x="140" y="6" width="65" height="14" rx="4" fill="#ffffff20"/>
    <text x="172" y="16" text-anchor="middle" class="badge-text">.NET 10</text>
    <text x="12" y="50" class="card-body" fill="#4ade80">InboxProcessor</text>
    <text x="12" y="65" class="card-detail">Polls outbox_messages every 5s</text>
    <text x="12" y="80" class="card-body">Deserializes event by Name column</text>
    <text x="12" y="95" class="card-body">Resolves handlers via DI</text>
    <line x1="12" y1="102" x2="203" y2="102" stroke="#334155" stroke-width="0.5"/>
    <text x="12" y="117" class="card-detail" fill="#22c55e">Task.WhenAll - parallel execution</text>
    <text x="12" y="130" class="card-detail" fill="#64748b">Per-handler InboxMessage tracking</text>
  </g>

  <!-- ============================================================ -->
  <!-- EVENT HANDLERS (expanded) -->
  <!-- ============================================================ -->
  <g transform="translate(540, 440)" filter="url(#softShadow)">
    <rect x="0" y="0" width="180" height="130" rx="10" fill="#1a1a2e" stroke="#14b8a640" stroke-width="1.5"/>
    <rect x="0" y="0" width="180" height="28" rx="10" fill="url(#handlerGrad)"/>
    <rect x="0" y="16" width="180" height="12" fill="url(#handlerGrad)"/>
    <text x="90" y="19" text-anchor="middle" font-size="11" font-weight="700" fill="#ffffff">Event Handlers</text>

    <!-- Handler 1 -->
    <rect x="10" y="36" width="160" height="24" rx="5" fill="#0f1117" stroke="#14b8a630" stroke-width="1"/>
    <circle cx="22" cy="48" r="4" fill="#f97316"/>
    <text x="32" y="52" class="card-detail">SendNotificationHandler</text>
    <text x="158" y="52" text-anchor="end" font-size="8" fill="#64748b">100ms</text>

    <!-- Handler 2 -->
    <rect x="10" y="66" width="160" height="24" rx="5" fill="#0f1117" stroke="#14b8a630" stroke-width="1"/>
    <circle cx="22" cy="78" r="4" fill="#3b82f6"/>
    <text x="32" y="82" class="card-detail">UpdateFollowStats</text>
    <text x="158" y="82" text-anchor="end" font-size="8" fill="#64748b">50ms</text>

    <!-- Handler 3 -->
    <rect x="10" y="96" width="160" height="24" rx="5" fill="#0f1117" stroke="#14b8a630" stroke-width="1"/>
    <circle cx="22" cy="108" r="4" fill="#a855f7"/>
    <text x="32" y="112" class="card-detail">AddToTimeline</text>
    <text x="158" y="112" text-anchor="end" font-size="8" fill="#64748b">75ms</text>
  </g>

  <!-- ============================================================ -->
  <!-- DOCKER + POSTGRESQL -->
  <!-- ============================================================ -->
  <g transform="translate(780, 240)" filter="url(#softShadow)">
    <!-- Docker container wrapper -->
    <rect x="0" y="0" width="395" height="330" rx="12" fill="#0d0d1a" stroke="#2563eb40" stroke-width="1.5" stroke-dasharray="6 3"/>
    <!-- Docker label -->
    <rect x="8" y="6" width="72" height="20" rx="5" fill="url(#dockerGrad)"/>
    <text x="44" y="20" text-anchor="middle" font-size="9" font-weight="700" fill="#ffffff">Docker</text>
    <!-- Whale icon (simplified) -->
    <g transform="translate(85, 7)">
      <ellipse cx="8" cy="11" rx="8" ry="5" fill="#2563eb" opacity="0.6"/>
      <rect x="1" y="2" width="4" height="5" rx="1" fill="#2563eb" opacity="0.4"/>
      <rect x="7" y="0" width="4" height="7" rx="1" fill="#2563eb" opacity="0.4"/>
      <rect x="13" y="3" width="4" height="4" rx="1" fill="#2563eb" opacity="0.4"/>
    </g>

    <!-- PostgreSQL Database -->
    <g transform="translate(20, 40)">
      <rect x="0" y="0" width="355" height="275" rx="10" fill="#1a1a2e" stroke="#3b82f640" stroke-width="1.5"/>
      <!-- DB header -->
      <rect x="0" y="0" width="355" height="35" rx="10" fill="url(#dbGrad)"/>
      <rect x="0" y="22" width="355" height="13" fill="url(#dbGrad)"/>
      <!-- DB icon -->
      <g transform="translate(12, 8)">
        <ellipse cx="8" cy="4" rx="8" ry="4" fill="#ffffff30"/>
        <rect x="0" y="4" width="16" height="14" fill="#ffffff15"/>
        <ellipse cx="8" cy="18" rx="8" ry="4" fill="#ffffff30"/>
        <ellipse cx="8" cy="11" rx="8" ry="4" fill="none" stroke="#ffffff40" stroke-width="0.5"/>
      </g>
      <text x="40" y="23" class="card-title">PostgreSQL 16</text>
      <rect x="265" y="8" width="78" height="18" rx="5" fill="#ffffff20"/>
      <text x="304" y="21" text-anchor="middle" class="badge-text">outbox_messages</text>

      <!-- Tables -->
      <g transform="translate(12, 45)">
        <!-- users table -->
        <rect x="0" y="0" width="155" height="50" rx="6" fill="#0f1117" stroke="#334155" stroke-width="1"/>
        <rect x="0" y="0" width="155" height="20" rx="6" fill="#334155"/>
        <rect x="0" y="14" width="155" height="6" fill="#334155"/>
        <text x="78" y="14" text-anchor="middle" font-size="9" font-weight="600" fill="#e2e8f0">users</text>
        <text x="8" y="36" font-size="8" fill="#94a3b8">id, username, created_at</text>
        <text x="8" y="46" font-size="7.5" fill="#64748b">User entity data</text>

        <!-- user_follows table -->
        <rect x="165" y="0" width="175" height="50" rx="6" fill="#0f1117" stroke="#334155" stroke-width="1"/>
        <rect x="0" y="0" width="175" height="20" rx="6" fill="#334155" transform="translate(165,0)"/>
        <rect x="165" y="14" width="175" height="6" fill="#334155"/>
        <text x="252" y="14" text-anchor="middle" font-size="9" font-weight="600" fill="#e2e8f0">user_follows</text>
        <text x="173" y="36" font-size="8" fill="#94a3b8">follower_id, followed_id</text>
        <text x="173" y="46" font-size="7.5" fill="#64748b">Follow relationships</text>

        <!-- outbox_messages table -->
        <rect x="0" y="60" width="155" height="75" rx="6" fill="#0f1117" stroke="#f9731650" stroke-width="1"/>
        <rect x="0" y="60" width="155" height="20" rx="6" fill="#f9731630"/>
        <rect x="0" y="74" width="155" height="6" fill="#f9731630"/>
        <text x="78" y="74" text-anchor="middle" font-size="9" font-weight="600" fill="#fb923c">outbox_messages</text>
        <text x="8" y="96" font-size="8" fill="#94a3b8">id, type (JSON $type)</text>
        <text x="8" y="108" font-size="8" fill="#94a3b8">data (JSON payload)</text>
        <text x="8" y="120" font-size="8" fill="#94a3b8">created_at, processed_at</text>
        <text x="8" y="132" font-size="7.5" fill="#64748b">Event queue (polled by Worker)</text>

        <!-- inbox_messages table -->
        <rect x="165" y="60" width="175" height="75" rx="6" fill="#0f1117" stroke="#22c55e50" stroke-width="1"/>
        <rect x="165" y="60" width="175" height="20" rx="6" fill="#22c55e30"/>
        <rect x="165" y="74" width="175" height="6" fill="#22c55e30"/>
        <text x="252" y="74" text-anchor="middle" font-size="9" font-weight="600" fill="#4ade80">inbox_messages</text>
        <text x="173" y="96" font-size="8" fill="#94a3b8">message_id, handler_name</text>
        <text x="173" y="108" font-size="8" fill="#94a3b8">status, started_at, completed_at</text>
        <text x="173" y="120" font-size="8" fill="#22c55e">UNIQUE(message_id, handler_name)</text>
        <text x="173" y="132" font-size="7.5" fill="#64748b">Per-handler idempotency records</text>
      </g>

      <!-- Row locking annotation -->
      <g transform="translate(12, 195)">
        <rect x="0" y="0" width="335" height="28" rx="5" fill="#3b82f610" stroke="#3b82f640" stroke-width="0.5"/>
        <text x="10" y="18" font-size="9" font-weight="600" fill="#60a5fa">FOR UPDATE SKIP LOCKED</text>
        <text x="180" y="18" font-size="8" fill="#64748b">- Concurrent-safe row locking for polling</text>
      </g>

      <!-- Transaction annotation -->
      <g transform="translate(12, 230)">
        <rect x="0" y="0" width="335" height="28" rx="5" fill="#f9731610" stroke="#f9731640" stroke-width="0.5"/>
        <text x="10" y="18" font-size="9" font-weight="600" fill="#fb923c">SAME TRANSACTION</text>
        <text x="155" y="18" font-size="8" fill="#64748b">- Entity changes + OutboxMessage atomic write</text>
      </g>
    </g>
  </g>

  <!-- ============================================================ -->
  <!-- FLOW ARROWS -->
  <!-- ============================================================ -->

  <!-- Flow 1: Frontend -> API -->
  <path d="M 112 220 L 112 240" stroke="#ec4899" stroke-width="2" fill="none" marker-end="url(#arrowPink)" class="flow-line flow-line-anim" opacity="0.8"/>
  <text x="120" y="235" class="flow-label" fill="#f472b6" font-size="8">1</text>

  <!-- Flow 2: API -> Domain (dependency) -->
  <path d="M 250 290 L 310 290" stroke="#a855f7" stroke-width="2" fill="none" marker-end="url(#arrowPurple)" class="flow-line flow-line-anim" opacity="0.7"/>

  <!-- Flow 3: API -> Database (write outbox) -->
  <path d="M 250 320 C 350 320, 500 250, 780 280" stroke="#f97316" stroke-width="2.5" fill="none" marker-end="url(#arrowOrange)" class="flow-line flow-line-anim" opacity="0.8"/>
  <!-- Label -->
  <rect x="460" y="258" width="120" height="16" rx="4" fill="#f9731615" stroke="#f9731640" stroke-width="0.5"/>
  <text x="470" y="270" class="flow-label" fill="#fb923c" font-size="8">2,3 Atomic Write</text>

  <!-- Flow 4: Worker -> Database (poll outbox) -->
  <path d="M 250 490 C 400 490, 600 400, 780 360" stroke="#22c55e" stroke-width="2.5" fill="none" marker-end="url(#arrowGreen)" class="flow-line flow-line-anim" opacity="0.8"/>
  <!-- Label -->
  <rect x="460" y="428" width="130" height="16" rx="4" fill="#22c55e15" stroke="#22c55e40" stroke-width="0.5"/>
  <text x="470" y="440" class="flow-label" fill="#4ade80" font-size="8">4 Poll (FOR UPDATE)</text>

  <!-- Flow 5: Worker -> Handlers -->
  <path d="M 250 530 L 540 490" stroke="#14b8a6" stroke-width="2" fill="none" marker-end="url(#arrowTeal)" class="flow-line flow-line-anim" opacity="0.7"/>

  <!-- Flow 6: Handlers -> Database (write inbox) -->
  <path d="M 720 490 C 760 470, 770 430, 790 410" stroke="#14b8a6" stroke-width="2" fill="none" marker-end="url(#arrowTeal)" class="flow-line flow-line-anim" opacity="0.7"/>
  <text x="730" y="440" class="flow-label" fill="#2dd4bf" font-size="8">6</text>

  <!-- Flow 7: Domain -> Infrastructure (dependency) -->
  <path d="M 402 360 L 402 385" stroke="#0ea5e9" stroke-width="2" fill="none" marker-end="url(#arrowCyan)" opacity="0.5"/>

  <!-- Dependency arrow: API -> Infrastructure -->
  <path d="M 250 380 L 310 420" stroke="#0ea5e9" stroke-width="1.5" fill="none" marker-end="url(#arrowCyan)" opacity="0.4" stroke-dasharray="3 3"/>

  <!-- Dependency arrow: Worker -> Infrastructure -->
  <path d="M 250 470 L 310 460" stroke="#0ea5e9" stroke-width="1.5" fill="none" marker-end="url(#arrowCyan)" opacity="0.4" stroke-dasharray="3 3"/>

  <!-- Frontend <- API (response) -->
  <path d="M 35 300 C 10 300, 10 220, 35 200" stroke="#ec4899" stroke-width="1.5" fill="none" marker-end="url(#arrowPink)" opacity="0.4" stroke-dasharray="3 3"/>

  <!-- ============================================================ -->
  <!-- DATA FLOW STEPS (Bottom) -->
  <!-- ============================================================ -->
  <g transform="translate(25, 590)">
    <rect x="0" y="0" width="730" height="100" rx="8" fill="#1a1a2e" stroke="#334155" stroke-width="1"/>
    <text x="15" y="20" font-size="12" font-weight="700" fill="#e2e8f0">Data Flow</text>
    <line x1="15" y1="28" x2="715" y2="28" stroke="#334155" stroke-width="0.5"/>

    <!-- Steps -->
    <g transform="translate(15, 38)">
      <circle cx="8" cy="8" r="8" fill="#f97316" opacity="0.8"/>
      <text x="8" y="12" text-anchor="middle" font-size="8" font-weight="700" fill="#fff">1</text>
      <text x="22" y="12" font-size="9" fill="#cbd5e1">API receives POST /follow request</text>
    </g>
    <g transform="translate(195, 38)">
      <circle cx="8" cy="8" r="8" fill="#a855f7" opacity="0.8"/>
      <text x="8" y="12" text-anchor="middle" font-size="8" font-weight="700" fill="#fff">2</text>
      <text x="22" y="12" font-size="9" fill="#cbd5e1">User.Follow() raises UserFollowedEvent</text>
    </g>
    <g transform="translate(420, 38)">
      <circle cx="8" cy="8" r="8" fill="#f97316" opacity="0.8"/>
      <text x="8" y="12" text-anchor="middle" font-size="8" font-weight="700" fill="#fff">3</text>
      <text x="22" y="12" font-size="9" fill="#cbd5e1">Interceptor writes OutboxMessage (same TX)</text>
    </g>
    <g transform="translate(15, 62)">
      <circle cx="8" cy="8" r="8" fill="#22c55e" opacity="0.8"/>
      <text x="8" y="12" text-anchor="middle" font-size="8" font-weight="700" fill="#fff">4</text>
      <text x="22" y="12" font-size="9" fill="#cbd5e1">Worker polls outbox (SKIP LOCKED)</text>
    </g>
    <g transform="translate(195, 62)">
      <circle cx="8" cy="8" r="8" fill="#14b8a6" opacity="0.8"/>
      <text x="8" y="12" text-anchor="middle" font-size="8" font-weight="700" fill="#fff">5</text>
      <text x="22" y="12" font-size="9" fill="#cbd5e1">Task.WhenAll runs 3 handlers in parallel</text>
    </g>
    <g transform="translate(420, 62)">
      <circle cx="8" cy="8" r="8" fill="#14b8a6" opacity="0.8"/>
      <text x="8" y="12" text-anchor="middle" font-size="8" font-weight="700" fill="#fff">6</text>
      <text x="22" y="12" font-size="9" fill="#cbd5e1">Each handler writes InboxMessage (idempotent)</text>
    </g>

    <!-- Connecting dots -->
    <circle cx="180" cy="46" r="1.5" fill="#475569"/>
    <circle cx="188" cy="46" r="1.5" fill="#475569"/>
    <circle cx="408" cy="46" r="1.5" fill="#475569"/>
    <circle cx="416" cy="46" r="1.5" fill="#475569"/>
    <circle cx="180" cy="70" r="1.5" fill="#475569"/>
    <circle cx="188" cy="70" r="1.5" fill="#475569"/>
    <circle cx="408" cy="70" r="1.5" fill="#475569"/>
    <circle cx="416" cy="70" r="1.5" fill="#475569"/>
  </g>

  <!-- ============================================================ -->
  <!-- LEGEND -->
  <!-- ============================================================ -->
  <g transform="translate(780, 590)">
    <rect x="0" y="0" width="395" height="100" rx="8" fill="#1a1a2e" stroke="#334155" stroke-width="1"/>
    <text x="15" y="20" font-size="12" font-weight="700" fill="#e2e8f0">Key Patterns</text>
    <line x1="15" y1="28" x2="380" y2="28" stroke="#334155" stroke-width="0.5"/>

    <!-- Pattern 1: Atomic Transaction -->
    <g transform="translate(15, 38)">
      <rect x="0" y="0" width="110" height="22" rx="4" fill="#f9731615" stroke="#f9731650" stroke-width="1"/>
      <circle cx="12" cy="11" r="4" fill="#f97316" opacity="0.8"/>
      <text x="22" y="15" font-size="9" font-weight="600" fill="#fb923c">Atomic TX</text>
    </g>
    <text x="130" y="53" font-size="8" fill="#94a3b8">Entity + Outbox in same transaction</text>

    <!-- Pattern 2: Row Locking -->
    <g transform="translate(15, 65)">
      <rect x="0" y="0" width="110" height="22" rx="4" fill="#3b82f615" stroke="#3b82f650" stroke-width="1"/>
      <circle cx="12" cy="11" r="4" fill="#3b82f6" opacity="0.8"/>
      <text x="22" y="15" font-size="9" font-weight="600" fill="#60a5fa">Row Locking</text>
    </g>
    <text x="130" y="80" font-size="8" fill="#94a3b8">FOR UPDATE SKIP LOCKED (concurrent-safe)</text>

    <!-- Pattern 3: Per-handler Idempotency -->
    <g transform="translate(275, 38)">
      <rect x="0" y="0" width="110" height="22" rx="4" fill="#22c55e15" stroke="#22c55e50" stroke-width="1"/>
      <circle cx="12" cy="11" r="4" fill="#22c55e" opacity="0.8"/>
      <text x="22" y="15" font-size="9" font-weight="600" fill="#4ade80">Idempotent</text>
    </g>
    <text x="275" y="80" font-size="8" fill="#94a3b8">UNIQUE(message_id, handler_name)</text>

    <!-- Animated flow indicator -->
    <g transform="translate(275, 65)">
      <rect x="0" y="0" width="110" height="22" rx="4" fill="#a855f715" stroke="#a855f750" stroke-width="1"/>
      <path d="M 10 11 L 30 11" stroke="#a855f7" stroke-width="2" stroke-dasharray="4 2" class="flow-line-anim"/>
      <text x="38" y="15" font-size="9" font-weight="600" fill="#c084fc">Data Flow</text>
    </g>
  </g>

  <!-- ============================================================ -->
  <!-- PROJECT DEPENDENCY GRAPH (top right area) -->
  <!-- ============================================================ -->
  <g transform="translate(540, 65)">
    <rect x="0" y="0" width="235" height="55" rx="8" fill="#1a1a2e" stroke="#334155" stroke-width="1"/>
    <text x="12" y="18" font-size="10" font-weight="600" fill="#e2e8f0">Project Dependencies</text>
    <!-- Mini dependency graph -->
    <g transform="translate(12, 28)">
      <rect x="0" y="0" width="45" height="18" rx="3" fill="#6366f130" stroke="#6366f1" stroke-width="0.8"/>
      <text x="22" y="13" text-anchor="middle" font-size="8" fill="#a78bfa">Domain</text>
      <text x="55" y="13" font-size="8" fill="#475569">&lt;-</text>
      <rect x="68" y="0" width="68" height="18" rx="3" fill="#0ea5e930" stroke="#0ea5e9" stroke-width="0.8"/>
      <text x="102" y="13" text-anchor="middle" font-size="8" fill="#38bdf8">Infrastructure</text>
      <text x="146" y="13" font-size="8" fill="#475569">&lt;-</text>
      <rect x="158" y="-5" width="30" height="14" rx="3" fill="#f9731630" stroke="#f97316" stroke-width="0.8"/>
      <text x="173" y="6" text-anchor="middle" font-size="7.5" fill="#fb923c">Api</text>
      <rect x="158" y="12" width="45" height="14" rx="3" fill="#22c55e30" stroke="#22c55e" stroke-width="0.8"/>
      <text x="180" y="23" text-anchor="middle" font-size="7.5" fill="#4ade80">Worker</text>
    </g>
  </g>

  <!-- Tech stack badge -->
  <g transform="translate(830, 65)">
    <rect x="0" y="0" width="345" height="55" rx="8" fill="#1a1a2e" stroke="#334155" stroke-width="1"/>
    <text x="12" y="18" font-size="10" font-weight="600" fill="#e2e8f0">Tech Stack</text>
    <g transform="translate(12, 26)">
      <rect x="0" y="0" width="55" height="18" rx="4" fill="#512bd430" stroke="#512bd4" stroke-width="0.8"/>
      <text x="27" y="13" text-anchor="middle" font-size="8" fill="#b794f6">.NET 10</text>
      <rect x="62" y="0" width="60" height="18" rx="4" fill="#5c2d9130" stroke="#5c2d91" stroke-width="0.8"/>
      <text x="92" y="13" text-anchor="middle" font-size="8" fill="#c4b5fd">EF Core 10</text>
      <rect x="130" y="0" width="75" height="18" rx="4" fill="#33679130" stroke="#336791" stroke-width="0.8"/>
      <text x="167" y="13" text-anchor="middle" font-size="8" fill="#7fbadf">PostgreSQL</text>
      <rect x="212" y="0" width="48" height="18" rx="4" fill="#2496ed30" stroke="#2496ed" stroke-width="0.8"/>
      <text x="236" y="13" text-anchor="middle" font-size="8" fill="#6bb5f5">Docker</text>
      <rect x="268" y="0" width="62" height="18" rx="4" fill="#e44d2530" stroke="#e44d25" stroke-width="0.8"/>
      <text x="299" y="13" text-anchor="middle" font-size="8" fill="#f0925a">OpenAPI</text>
    </g>
  </g>

  <!-- Subtle version/tag -->
  <text x="1188" y="792" text-anchor="end" font-size="8" fill="#334155">Outbox Pattern Demo v1.0</text>
</svg>